<svg width="94" height="104" viewBox="0 0 94 104" fill="none" xmlns="http://www.w3.org/2000/svg">
<path d="M93.28 82.6675H69.01V104H93.28V82.6675Z" fill="white"/>
<path d="M81.15 82.6675H69.01V104H81.15V82.6675Z" fill="#ECEFF1"/>
<path d="M24.27 82.6675H0V104H24.27V82.6675Z" fill="white"/>
<path d="M24.2801 82.6675H12.1401V104H24.2801V82.6675Z" fill="#ECEFF1"/>
<path d="M24.27 82.6674V45.0001C24.27 33.1036 34.3 23.4166 46.64 23.4166C58.98 23.4166 69.01 33.094 69.01 45.0001V82.6674H93.28V45.0001C93.28 20.1844 72.35 0 46.64 0C20.93 0 0 20.1844 0 45.0001V82.6674H24.27Z" fill="#E94917"/>
<g style="mix-blend-mode:multiply" opacity="0.39">
<path d="M46.6401 11.4331C27.5801 11.4331 12.1401 26.3399 12.1401 44.7201V82.6575H24.2801V44.9902C24.2801 33.0937 34.3101 23.4068 46.6501 23.4068C58.9901 23.4068 69.0201 33.0841 69.0201 44.9902V82.6575H81.1601V44.7201C81.1601 26.3302 65.7101 11.4331 46.6601 11.4331H46.6401Z" fill="#E94917"/>
</g>
</svg>
